<svg width="20" height="18" viewBox="0 0 20 18" fill="none" xmlns="http://www.w3.org/2000/svg">
<path d="M19.1429 8.57143H15.7143M5.42861 0.57143C5.73171 0.57143 6.0224 0.691838 6.23673 0.906166C6.45106 1.12049 6.57146 1.41118 6.57146 1.71429V4C6.57146 4.30311 6.45106 4.5938 6.23673 4.80812C6.0224 5.02245 5.73171 5.14286 5.42861 5.14286C5.1255 5.14286 4.83481 5.02245 4.62048 4.80812C4.40616 4.5938 4.28575 4.30311 4.28575 4V1.71429C4.28575 1.41118 4.40616 1.12049 4.62048 0.906166C4.83481 0.691838 5.1255 0.57143 5.42861 0.57143V0.57143ZM19.1429 2.85714H6.57146H19.1429ZM4.28575 2.85714H0.857178H4.28575ZM5.42861 12C5.73171 12 6.0224 12.1204 6.23673 12.3347C6.45106 12.5491 6.57146 12.8398 6.57146 13.1429V15.4286C6.57146 15.7317 6.45106 16.0224 6.23673 16.2367C6.0224 16.451 5.73171 16.5714 5.42861 16.5714C5.1255 16.5714 4.83481 16.451 4.62048 16.2367C4.40616 16.0224 4.28575 15.7317 4.28575 15.4286V13.1429C4.28575 12.8398 4.40616 12.5491 4.62048 12.3347C4.83481 12.1204 5.1255 12 5.42861 12ZM19.1429 14.2857H6.57146H19.1429ZM4.28575 14.2857H0.857178H4.28575ZM14.5715 6.28572C14.8746 6.28572 15.1653 6.40612 15.3796 6.62045C15.5939 6.83478 15.7143 7.12547 15.7143 7.42857V9.71429C15.7143 10.0174 15.5939 10.3081 15.3796 10.5224C15.1653 10.7367 14.8746 10.8571 14.5715 10.8571C14.2684 10.8571 13.9777 10.7367 13.7633 10.5224C13.549 10.3081 13.4286 10.0174 13.4286 9.71429V7.42857C13.4286 7.12547 13.549 6.83478 13.7633 6.62045C13.9777 6.40612 14.2684 6.28572 14.5715 6.28572V6.28572ZM13.4286 8.57143H0.857178H13.4286Z" stroke="#617281" stroke-linecap="round" stroke-linejoin="round"/>
</svg>
