<svg width="25" height="33" viewBox="0 0 25 33" fill="none" xmlns="http://www.w3.org/2000/svg">
<g filter="url(#filter0_d_31_5)">
<path d="M12.5 7.03125C13.1181 7.03125 13.7223 6.84797 14.2362 6.50459C14.7501 6.16121 15.1506 5.67316 15.3871 5.10214C15.6236 4.53112 15.6855 3.90278 15.565 3.29659C15.4444 2.6904 15.1467 2.13358 14.7097 1.69654C14.2727 1.2595 13.7158 0.961876 13.1097 0.841297C12.5035 0.720719 11.8751 0.782604 11.3041 1.01913C10.7331 1.25565 10.245 1.65619 9.90166 2.17009C9.55828 2.684 9.375 3.28818 9.375 3.90625C9.37593 4.73477 9.70547 5.52908 10.2913 6.11493C10.8772 6.70078 11.6715 7.03032 12.5 7.03125ZM12.5 2.34375C12.809 2.34375 13.1111 2.43539 13.3681 2.60708C13.625 2.77877 13.8253 3.0228 13.9436 3.30831C14.0618 3.59382 14.0928 3.90798 14.0325 4.21108C13.9722 4.51418 13.8234 4.79259 13.6049 5.01111C13.3863 5.22963 13.1079 5.37844 12.8048 5.43873C12.5017 5.49902 12.1876 5.46807 11.9021 5.34981C11.6165 5.23155 11.3725 5.03128 11.2008 4.77433C11.0291 4.51738 10.9375 4.21528 10.9375 3.90625C10.938 3.49199 11.1027 3.09484 11.3957 2.80191C11.6886 2.50899 12.0857 2.34422 12.5 2.34375ZM12.5 17.9688C11.8819 17.9688 11.2777 18.152 10.7638 18.4954C10.2499 18.8388 9.8494 19.3268 9.61288 19.8979C9.37635 20.4689 9.31447 21.0972 9.43505 21.7034C9.55563 22.3096 9.85325 22.8664 10.2903 23.3035C10.7273 23.7405 11.2842 24.0381 11.8903 24.1587C12.4965 24.2793 13.1249 24.2174 13.6959 23.9809C14.2669 23.7443 14.755 23.3438 15.0983 22.8299C15.4417 22.316 15.625 21.7118 15.625 21.0937C15.6241 20.2652 15.2945 19.4709 14.7087 18.8851C14.1228 18.2992 13.3285 17.9697 12.5 17.9688ZM12.5 22.6562C12.191 22.6562 11.8889 22.5646 11.6319 22.3929C11.375 22.2212 11.1747 21.9772 11.0564 21.6917C10.9382 21.4062 10.9072 21.092 10.9675 20.7889C11.0278 20.4858 11.1766 20.2074 11.3951 19.9889C11.6137 19.7704 11.8921 19.6216 12.1952 19.5613C12.4983 19.501 12.8124 19.5319 13.0979 19.6502C13.3835 19.7685 13.6275 19.9687 13.7992 20.2257C13.9709 20.4826 14.0625 20.7847 14.0625 21.0937C14.062 21.508 13.8973 21.9052 13.6043 22.1981C13.3114 22.491 12.9143 22.6558 12.5 22.6562ZM12.5 9.375C11.8819 9.375 11.2777 9.55828 10.7638 9.90166C10.2499 10.245 9.8494 10.7331 9.61288 11.3041C9.37635 11.8751 9.31447 12.5035 9.43505 13.1097C9.55563 13.7158 9.85325 14.2727 10.2903 14.7097C10.7273 15.1467 11.2842 15.4444 11.8903 15.565C12.4965 15.6855 13.1249 15.6236 13.6959 15.3871C14.2669 15.1506 14.755 14.7501 15.0983 14.2362C15.4417 13.7223 15.625 13.1181 15.625 12.5C15.6241 11.6715 15.2945 10.8772 14.7087 10.2913C14.1228 9.70547 13.3285 9.37593 12.5 9.375V9.375ZM12.5 14.0625C12.191 14.0625 11.8889 13.9709 11.6319 13.7992C11.375 13.6275 11.1747 13.3835 11.0564 13.0979C10.9382 12.8124 10.9072 12.4983 10.9675 12.1952C11.0278 11.8921 11.1766 11.6137 11.3951 11.3951C11.6137 11.1766 11.8921 11.0278 12.1952 10.9675C12.4983 10.9072 12.8124 10.9382 13.0979 11.0564C13.3835 11.1747 13.6275 11.375 13.7992 11.6319C13.9709 11.8889 14.0625 12.191 14.0625 12.5C14.062 12.9143 13.8973 13.3114 13.6043 13.6043C13.3114 13.8973 12.9143 14.062 12.5 14.0625Z" fill="#617281"/>
</g>
<defs>
<filter id="filter0_d_31_5" x="-4" y="0" width="33" height="33" filterUnits="userSpaceOnUse" color-interpolation-filters="sRGB">
<feFlood flood-opacity="0" result="BackgroundImageFix"/>
<feColorMatrix in="SourceAlpha" type="matrix" values="0 0 0 0 0 0 0 0 0 0 0 0 0 0 0 0 0 0 127 0" result="hardAlpha"/>
<feOffset dy="4"/>
<feGaussianBlur stdDeviation="2"/>
<feComposite in2="hardAlpha" operator="out"/>
<feColorMatrix type="matrix" values="0 0 0 0 0 0 0 0 0 0 0 0 0 0 0 0 0 0 0.25 0"/>
<feBlend mode="normal" in2="BackgroundImageFix" result="effect1_dropShadow_31_5"/>
<feBlend mode="normal" in="SourceGraphic" in2="effect1_dropShadow_31_5" result="shape"/>
</filter>
</defs>
</svg>
