<svg width="207" height="46" viewBox="0 0 207 46" fill="none" xmlns="http://www.w3.org/2000/svg">
<g filter="url(#filter0_d_46_221)">
<path d="M52.4489 14.5256V12.1818H68.8125V14.5256H61.9517V34H59.3097V14.5256H52.4489ZM75.0634 24.1562V34H72.5492V12.1818H75.0634V20.1932H75.2765C75.66 19.348 76.2353 18.6768 77.0023 18.1797C77.7765 17.6754 78.8063 17.4233 80.0918 17.4233C81.2069 17.4233 82.1834 17.647 83.0215 18.0945C83.8596 18.5348 84.5094 19.2131 84.9711 20.1293C85.4398 21.0384 85.6742 22.196 85.6742 23.6023V34H83.16V23.7727C83.16 22.473 82.8226 21.468 82.1479 20.7578C81.4803 20.0405 80.5534 19.6818 79.3674 19.6818C78.5435 19.6818 77.8049 19.8558 77.1515 20.2038C76.5051 20.5518 75.9938 21.0597 75.6174 21.7273C75.248 22.3949 75.0634 23.2045 75.0634 24.1562ZM97.1346 34.3409C95.5579 34.3409 94.1978 33.9929 93.0543 33.2969C91.918 32.5938 91.0408 31.6136 90.4229 30.3565C89.8121 29.0923 89.5067 27.6222 89.5067 25.946C89.5067 24.2699 89.8121 22.7926 90.4229 21.5142C91.0408 20.2287 91.9002 19.2273 93.0011 18.5099C94.109 17.7855 95.4016 17.4233 96.8789 17.4233C97.7312 17.4233 98.5728 17.5653 99.4038 17.8494C100.235 18.1335 100.991 18.5952 101.673 19.2344C102.355 19.8665 102.898 20.7045 103.303 21.7486C103.708 22.7926 103.91 24.0781 103.91 25.6051V26.6705H91.2965V24.4972H101.353C101.353 23.5739 101.169 22.75 100.799 22.0256C100.437 21.3011 99.9187 20.7294 99.244 20.3104C98.5763 19.8913 97.788 19.6818 96.8789 19.6818C95.8775 19.6818 95.011 19.9304 94.2795 20.4276C93.555 20.9176 92.9975 21.5568 92.6069 22.3452C92.2163 23.1335 92.021 23.9787 92.021 24.8807V26.3295C92.021 27.5653 92.234 28.6129 92.6602 29.4723C93.0934 30.3246 93.6935 30.9744 94.4606 31.4219C95.2276 31.8622 96.119 32.0824 97.1346 32.0824C97.7951 32.0824 98.3917 31.9901 98.9244 31.8054C99.4641 31.6136 99.9293 31.3295 100.32 30.9531C100.711 30.5696 101.012 30.0937 101.225 29.5256L103.654 30.2074C103.399 31.0312 102.969 31.7557 102.365 32.3807C101.762 32.9986 101.016 33.4815 100.128 33.8295C99.2404 34.1705 98.2425 34.3409 97.1346 34.3409ZM116.513 34V12.1818H124.141C125.661 12.1818 126.914 12.4446 127.902 12.9702C128.889 13.4886 129.624 14.1882 130.107 15.0689C130.59 15.9425 130.831 16.9119 130.831 17.9773C130.831 18.9148 130.664 19.6889 130.331 20.2997C130.004 20.9105 129.571 21.3935 129.031 21.7486C128.498 22.1037 127.919 22.3665 127.294 22.5369V22.75C127.962 22.7926 128.633 23.027 129.308 23.4531C129.983 23.8793 130.547 24.4901 131.002 25.2855C131.456 26.081 131.684 27.054 131.684 28.2045C131.684 29.2983 131.435 30.282 130.938 31.1555C130.441 32.0291 129.656 32.7216 128.583 33.233C127.511 33.7443 126.115 34 124.397 34H116.513ZM119.155 31.6562H124.397C126.123 31.6562 127.348 31.3224 128.072 30.6548C128.804 29.9801 129.169 29.1634 129.169 28.2045C129.169 27.4659 128.981 26.7841 128.605 26.1591C128.228 25.527 127.692 25.0227 126.996 24.6463C126.3 24.2628 125.476 24.071 124.525 24.071H119.155V31.6562ZM119.155 21.7699H124.056C124.851 21.7699 125.569 21.6136 126.208 21.3011C126.854 20.9886 127.365 20.5483 127.742 19.9801C128.125 19.4119 128.317 18.7443 128.317 17.9773C128.317 17.0185 127.983 16.2053 127.316 15.5376C126.648 14.8629 125.59 14.5256 124.141 14.5256H119.155V21.7699ZM142.332 34.3409C140.854 34.3409 139.558 33.9893 138.443 33.2862C137.335 32.5831 136.469 31.5994 135.844 30.3352C135.226 29.071 134.917 27.5937 134.917 25.9034C134.917 24.1989 135.226 22.7109 135.844 21.4396C136.469 20.1683 137.335 19.1811 138.443 18.478C139.558 17.7749 140.854 17.4233 142.332 17.4233C143.809 17.4233 145.102 17.7749 146.21 18.478C147.325 19.1811 148.191 20.1683 148.809 21.4396C149.434 22.7109 149.746 24.1989 149.746 25.9034C149.746 27.5937 149.434 29.071 148.809 30.3352C148.191 31.5994 147.325 32.5831 146.21 33.2862C145.102 33.9893 143.809 34.3409 142.332 34.3409ZM142.332 32.0824C143.454 32.0824 144.377 31.7947 145.102 31.2195C145.826 30.6442 146.362 29.8878 146.71 28.9503C147.058 28.0128 147.232 26.9972 147.232 25.9034C147.232 24.8097 147.058 23.7905 146.71 22.8459C146.362 21.9013 145.826 21.1378 145.102 20.5554C144.377 19.973 143.454 19.6818 142.332 19.6818C141.21 19.6818 140.286 19.973 139.562 20.5554C138.837 21.1378 138.301 21.9013 137.953 22.8459C137.605 23.7905 137.431 24.8097 137.431 25.9034C137.431 26.9972 137.605 28.0128 137.953 28.9503C138.301 29.8878 138.837 30.6442 139.562 31.2195C140.286 31.7947 141.21 32.0824 142.332 32.0824ZM160.232 34.3409C158.755 34.3409 157.459 33.9893 156.344 33.2862C155.236 32.5831 154.369 31.5994 153.744 30.3352C153.126 29.071 152.817 27.5937 152.817 25.9034C152.817 24.1989 153.126 22.7109 153.744 21.4396C154.369 20.1683 155.236 19.1811 156.344 18.478C157.459 17.7749 158.755 17.4233 160.232 17.4233C161.709 17.4233 163.002 17.7749 164.11 18.478C165.225 19.1811 166.091 20.1683 166.709 21.4396C167.334 22.7109 167.647 24.1989 167.647 25.9034C167.647 27.5937 167.334 29.071 166.709 30.3352C166.091 31.5994 165.225 32.5831 164.11 33.2862C163.002 33.9893 161.709 34.3409 160.232 34.3409ZM160.232 32.0824C161.354 32.0824 162.278 31.7947 163.002 31.2195C163.726 30.6442 164.263 29.8878 164.611 28.9503C164.959 28.0128 165.133 26.9972 165.133 25.9034C165.133 24.8097 164.959 23.7905 164.611 22.8459C164.263 21.9013 163.726 21.1378 163.002 20.5554C162.278 19.973 161.354 19.6818 160.232 19.6818C159.11 19.6818 158.187 19.973 157.462 20.5554C156.738 21.1378 156.202 21.9013 155.854 22.8459C155.506 23.7905 155.331 24.8097 155.331 25.9034C155.331 26.9972 155.506 28.0128 155.854 28.9503C156.202 29.8878 156.738 30.6442 157.462 31.2195C158.187 31.7947 159.11 32.0824 160.232 32.0824ZM173.828 28.0341L173.786 24.9233H174.297L181.456 17.6364H184.567L176.939 25.3494H176.726L173.828 28.0341ZM171.485 34V12.1818H173.999V34H171.485ZM181.882 34L175.49 25.9034L177.28 24.1562L185.078 34H181.882ZM199.394 21.3011L197.135 21.9403C196.993 21.5639 196.784 21.1982 196.507 20.843C196.237 20.4808 195.868 20.1825 195.399 19.9482C194.93 19.7138 194.33 19.5966 193.599 19.5966C192.597 19.5966 191.763 19.8274 191.095 20.2891C190.434 20.7436 190.104 21.3224 190.104 22.0256C190.104 22.6506 190.331 23.1442 190.786 23.5064C191.241 23.8686 191.951 24.1705 192.917 24.4119L195.346 25.0085C196.809 25.3636 197.899 25.907 198.616 26.6385C199.334 27.3629 199.692 28.2969 199.692 29.4403C199.692 30.3778 199.422 31.2159 198.883 31.9545C198.35 32.6932 197.604 33.2756 196.645 33.7017C195.687 34.1278 194.572 34.3409 193.3 34.3409C191.631 34.3409 190.25 33.9787 189.156 33.2543C188.062 32.5298 187.37 31.4716 187.079 30.0795L189.465 29.483C189.692 30.3636 190.122 31.0241 190.754 31.4645C191.393 31.9048 192.228 32.125 193.258 32.125C194.43 32.125 195.36 31.8764 196.049 31.3793C196.745 30.875 197.093 30.2713 197.093 29.5682C197.093 29 196.894 28.5241 196.496 28.1406C196.099 27.75 195.488 27.4588 194.664 27.267L191.937 26.6278C190.438 26.2727 189.337 25.7223 188.634 24.9766C187.938 24.2237 187.59 23.2827 187.59 22.1534C187.59 21.2301 187.849 20.4134 188.368 19.7031C188.893 18.9929 189.607 18.4354 190.509 18.0305C191.418 17.6257 192.448 17.4233 193.599 17.4233C195.218 17.4233 196.489 17.7784 197.412 18.4886C198.343 19.1989 199.003 20.1364 199.394 21.3011Z" fill="white"/>
</g>
<path d="M40.2502 11.5C39.7418 11.5 39.2543 11.7019 38.8949 12.0614C38.5354 12.4208 38.3335 12.9083 38.3335 13.4167V32.5833C38.3335 34.1083 37.7277 35.5709 36.6494 36.6492C35.571 37.7275 34.1085 38.3333 32.5835 38.3333H13.4168C12.9085 38.3333 12.421 38.5353 12.0615 38.8947C11.7021 39.2542 11.5002 39.7417 11.5002 40.25C11.5002 40.7583 11.7021 41.2458 12.0615 41.6053C12.421 41.9647 12.9085 42.1667 13.4168 42.1667H32.5835C35.1252 42.1667 37.5627 41.157 39.3599 39.3598C41.1572 37.5625 42.1668 35.125 42.1668 32.5833V13.4167C42.1668 12.9083 41.9649 12.4208 41.6054 12.0614C41.246 11.7019 40.7585 11.5 40.2502 11.5ZM34.5002 28.75V9.58333C34.5002 8.05833 33.8944 6.5958 32.816 5.51746C31.7377 4.43913 30.2752 3.83333 28.7502 3.83333H9.5835C8.0585 3.83333 6.59597 4.43913 5.51763 5.51746C4.4393 6.5958 3.8335 8.05833 3.8335 9.58333V28.75C3.8335 30.275 4.4393 31.7375 5.51763 32.8159C6.59597 33.8942 8.0585 34.5 9.5835 34.5H28.7502C30.2752 34.5 31.7377 33.8942 32.816 32.8159C33.8944 31.7375 34.5002 30.275 34.5002 28.75ZM19.1668 7.66666H23.0002V16.9817L22.3102 16.4067C21.9658 16.1198 21.5317 15.9627 21.0835 15.9627C20.6353 15.9627 20.2012 16.1198 19.8568 16.4067L19.1668 16.9817V7.66666ZM7.66683 28.75V9.58333C7.66683 9.075 7.86876 8.58749 8.22821 8.22804C8.58765 7.8686 9.07516 7.66666 9.5835 7.66666H15.3335V21.0833C15.3335 21.4497 15.4385 21.8085 15.636 22.117C15.8336 22.4256 16.1155 22.671 16.4483 22.8243C16.7811 22.9776 17.1509 23.0323 17.5138 22.9819C17.8767 22.9315 18.2176 22.7782 18.496 22.54L21.0835 20.3742L23.671 22.54C24.0182 22.8369 24.46 23 24.9168 23C25.1941 22.998 25.4681 22.9393 25.7218 22.8275C26.0545 22.6735 26.3361 22.4274 26.5331 22.1182C26.7302 21.8091 26.8344 21.4499 26.8335 21.0833V7.66666H28.7502C29.2585 7.66666 29.746 7.8686 30.1054 8.22804C30.4649 8.58749 30.6668 9.075 30.6668 9.58333V28.75C30.6668 29.2583 30.4649 29.7458 30.1054 30.1053C29.746 30.4647 29.2585 30.6667 28.7502 30.6667H9.5835C9.07516 30.6667 8.58765 30.4647 8.22821 30.1053C7.86876 29.7458 7.66683 29.2583 7.66683 28.75Z" fill="#00D1FF"/>
<defs>
<filter id="filter0_d_46_221" x="45.5214" y="8.71813" width="161.098" height="36.0138" filterUnits="userSpaceOnUse" color-interpolation-filters="sRGB">
<feFlood flood-opacity="0" result="BackgroundImageFix"/>
<feColorMatrix in="SourceAlpha" type="matrix" values="0 0 0 0 0 0 0 0 0 0 0 0 0 0 0 0 0 0 127 0" result="hardAlpha"/>
<feOffset dy="3.46369"/>
<feGaussianBlur stdDeviation="3.46369"/>
<feComposite in2="hardAlpha" operator="out"/>
<feColorMatrix type="matrix" values="0 0 0 0 0 0 0 0 0 0 0 0 0 0 0 0 0 0 0.62 0"/>
<feBlend mode="normal" in2="BackgroundImageFix" result="effect1_dropShadow_46_221"/>
<feBlend mode="normal" in="SourceGraphic" in2="effect1_dropShadow_46_221" result="shape"/>
</filter>
</defs>
</svg>
